PathFileType	4	(X/Y/Z)	C:/Users/beibeiliu/ov580/test_trc/User3\sequence.1_training_dense_left.trc
DataRate	CameraRate	NumFrames	NumMarkers	Units	OrigDataRate	OrigDataStartFrame	OrigNumFrames
120	120	21	19	mm	120	1	65
Frame#	Time	ThumbCMC			ThumbMCP			ThumbIP			ThumbTip			IndexMCP			IndexPIP			IndexTip			MiddleMCP			MiddlePIP			MiddleTip			RingMCP			RingPIP			RingTip			PinkyMCP			PinkyPIP			PinkyTip			BackHand1			BackHand2			BackHand3	
		X0	Y0	Z0	X1	Y1	Z1	X2	Y2	Z2	X3	Y3	Z3	X4	Y4	Z4	X5	Y5	Z5	X6	Y6	Z6	X7	Y7	Z7	X8	Y8	Z8	X9	Y9	Z9	X10	Y10	Z10	X11	Y11	Z11	X12	Y12	Z12	X13	Y13	Z13	X14	Y14	Z14	X15	Y15	Z15	X16	Y16	Z16	X17	Y17	Z17	X18	Y18	Z18	
0	0	-83.2028	13.4103	65.267	-63.5858	5.67404	45.6248	-40.7078	2.67475	25.6757	-26.2054	-4.15907	5.10117	-103.246	24.6848	-10.8802	-95.0067	26.7711	-36.0117	-89.6079	28.0186	-65.8695	-127.505	22.9707	-17.9776	-128.444	22.7816	-47.0565	-128.269	15.3791	-78.5396	-144.917	12.3051	-12.9307	-149.125	10.9596	-34.7394	-153.03	3.07104	-61.1031	-164.787	-1.2433	3.64572	-169.388	-4.71325	-14.8445	-171.171	-9.39191	-39.7389	-146.66	22.6623	36.7639	-148.981	24.1017	71.4528	-116.485	31.2419	52.1095	
1	0.00833333	-83.1764	11.0358	52.4006	-61.1567	4.86372	33.4721	-45.5823	-1.79408	11.6947	-29.4725	-9.69997	-8.59024	-104.341	29.1186	-21.5207	-97.5511	32.2673	-50.3923	-92.7012	29.5092	-77.8706	-127.774	29.4647	-28.9158	-128.728	30.3798	-53.4489	-130.769	22.2783	-87.8587	-150.752	18.2205	-18.9632	-150.583	18.2597	-43.8527	-156.482	10.8805	-75.1225	-164.081	4.35594	-1.30432	-174.358	2.07628	-28.2008	-179.69	-1.52862	-46.9229	-147.721	24.2993	32.5863	-146.213	26.8006	60.9189	-113.79	31.1809	41.7255	
2	0.0166667	-86.7293	-7.34942	42.2539	-68.7095	-15.061	22.5423	-48.5171	-22.185	-4.72145	-39.8175	-29.9991	-19.0658	-103.152	16.0525	-35.1925	-102.321	17.837	-59.2048	-94.6714	14.4203	-85.3068	-133.666	18.6564	-34.532	-133.604	20.3982	-64.0267	-134.013	12.788	-96.2592	-150.312	10.1571	-25.8403	-157.738	10.3005	-56.708	-165.276	2.89916	-82.4965	-171.596	-1.35036	-10.0512	-181.631	-3.79286	-33.7303	-185.984	-10.1691	-54.9999	-150.413	15.051	23.5023	-145.998	14.4732	51.7394	-116.199	16.5186	34.4716	
3	0.025	-87.589	-29.6152	33.5222	-74.0458	-40.8303	16.1931	-55.7761	-50.8122	-5.17874	-43.6766	-60.1742	-17.8525	-110.489	-18.6763	-41.1419	-102.885	-20.4471	-68.6234	-105.486	-26.6023	-89.5978	-135.333	-15.1606	-40.0062	-138.307	-18.1415	-72.3282	-141.415	-29.5738	-101.21	-155.1	-20.6242	-33.3985	-163.742	-24.9581	-59.6287	-168.512	-33.7897	-81.1636	-171.476	-29.461	-12.2373	-182.399	-32.0701	-36.6771	-192.024	-41.8835	-56.7703	-152.312	-9.5463	14.3704	-152.604	-4.36847	44.5742	-118.097	-6.29014	24.232	
4	0.0333333	-93.3766	-35.2133	39.3304	-72.6172	-48.5329	19.224	-52.0139	-59.4359	3.57604	-38.1297	-70.5408	-9.80346	-108.684	-42.4835	-36.5949	-104.726	-49.4419	-61.1841	-99.6297	-60.1417	-84.7607	-134.203	-42.2312	-45.101	-134.594	-54.5314	-72.0257	-135.327	-70.0415	-94.7583	-160.101	-49.9414	-29.6701	-162.037	-60.7173	-57.722	-167.909	-79.7744	-77.0559	-177.074	-56.0276	-10.442	-179.516	-65.2943	-30.8477	-187.666	-83.1133	-48.7424	-156.152	-25.5358	13.2463	-151.256	-15.1259	39.2486	-122.493	-18.9446	22.0485	
5	0.0416667	-97.9559	-28.0506	36.8631	-76.4047	-37.9055	23.4407	-53.4621	-47.9085	5.41447	-34.5494	-55.004	-3.34881	-108.008	-53.2241	-30.5305	-103.682	-68.5468	-56.8249	-93.8596	-78.9754	-74.2225	-135.238	-65.5463	-37.2116	-128.018	-79.6277	-60.1534	-123.513	-103.942	-79.7504	-155.238	-75.3109	-21.5683	-153.695	-94.2264	-44.583	-150.907	-115.525	-56.994	-168.009	-80.1843	-1.68328	-167.967	-95.4859	-17.1388	-166.28	-120.748	-27.9785	-157.751	-38.6086	17.8326	-162.031	-25.2597	40.9989	-128.087	-21.1302	22.0178	
6	0.05	-109.651	-9.70414	33.4128	-85.0627	-12.9523	19.904	-63.4568	-17.3007	7.55363	-44.0918	-19.8032	-5.06122	-109.332	-56.2664	-31.0067	-95.9762	-63.2097	-47.8085	-84.6403	-78.1202	-65.8493	-126.829	-76.032	-29.9855	-113.427	-87.4688	-47.9519	-95.3187	-111.759	-66.288	-138.118	-84.8998	-11.1368	-130.332	-107.186	-28.545	-113.661	-130.106	-41.5452	-151.346	-98.1112	11.0408	-141.02	-118.689	-2.54483	-128.764	-137.466	-7.56972	-158.145	-50.1003	22.2683	-171.366	-35.9528	43.9985	-144.856	-21.7555	21.413	
7	0.0583333	-131.457	5.42629	31.4857	-107.008	10.1335	15.6914	-82.6225	15.2912	-5.22566	-65.2626	19.8576	-14.7802	-110.03	-44.3446	-31.051	-90.5659	-49.9211	-51.1989	-76.6029	-60.0944	-64.3655	-115.613	-69.6414	-27.0748	-98.1482	-79.588	-43.5104	-67.5495	-92.5314	-60.7736	-122.006	-82.9088	-7.33214	-105.853	-103.527	-19.4466	-84.2077	-116.811	-28.4165	-127.544	-98.7191	16.6074	-112.697	-111.115	9.26917	-88.8816	-126.819	4.38784	-157.533	-59.4692	26.3167	-171.841	-45.9065	44.3415	-154.955	-21.6713	17.6016	
8	0.0666667	-145.637	9.41783	26.1637	-126.188	21.2487	7.94866	-107.952	30.8092	-10.1918	-91.0889	40.88	-26.678	-113.994	-31.6441	-32.107	-92.7533	-33.2552	-55.0615	-72.2257	-32.4121	-71.6447	-110.979	-56.3917	-26.3211	-86.0049	-64.8682	-46.044	-57.8568	-65.4187	-60.2386	-107.704	-74.0006	-7.55576	-87.165	-85.261	-19.3195	-59.6489	-88.8047	-31.1174	-108.664	-84.5803	21.2508	-89.1328	-92.4434	12.007	-63.8179	-101.601	6.82924	-148.003	-57.9545	24.8089	-167.425	-50.2216	48.5917	-159.216	-24.7608	19.619	
9	0.075	-155.942	8.84183	26.2341	-144.593	29.7289	2.92152	-132.797	43.7228	-16.6572	-117.64	51.9571	-30.5864	-117.671	-21.3362	-37.2469	-101.638	-20.9123	-56.4884	-82.1451	-16.3404	-76.2563	-106.703	-44.1519	-32.3825	-86.0704	-43.4948	-52.3263	-57.71	-38.4336	-67.1341	-97.795	-57.2922	-13.8181	-76.2429	-65.1528	-23.273	-49.3387	-60.4965	-36.0787	-93.7394	-64.2233	15.5054	-68.5932	-69.445	7.14382	-46.8353	-68.6513	-0.183752	-137.522	-56.9225	26.23	-154.773	-52.7367	46.3887	-160.1	-25.8947	19.7445	
10	0.0833333	-161.83	8.66523	21.3194	-158.123	27.8265	-0.0316874	-151.518	44.419	-23.5653	-144.646	58.1609	-41.6161	-118.306	-14.5839	-41.6045	-108.247	-7.24284	-64.3737	-89.5302	0.367936	-85.4823	-100.579	-31.8454	-37.8505	-84.656	-25.9811	-57.6959	-58.4707	-15.371	-75.2491	-84.8581	-41.3405	-13.8438	-66.111	-39.5529	-31.188	-42.7051	-28.1109	-48.3635	-78.8189	-41.446	9.26922	-55.6461	-39.5067	-2.04901	-35.6093	-31.6268	-10.9144	-122.165	-47.8651	24.9598	-136.828	-46.9057	45.7804	-152.394	-28.6414	19.3393	
11	0.0916667	-161.491	7.14174	23.246	-170.193	26.8149	-1.84165	-169.681	42.5825	-26.475	-162.973	54.9759	-43.7669	-123.004	-7.33674	-47.7856	-114.761	0.812269	-73.1063	-103.485	9.73737	-91.3438	-100.822	-19.6826	-41.6279	-84.3638	-12.2817	-66.8614	-65.4032	6.42411	-89.7689	-82.3729	-22.8005	-21.1836	-66.8958	-16.6642	-42.6285	-46.2953	-3.95366	-57.9455	-69.9464	-19.7204	-4.68097	-54.3888	-12.8211	-13.2511	-32.2498	-0.0684579	-24.8107	-110.368	-37.9005	18.2483	-122.367	-40.4633	45.0905	-146.123	-23.1533	15.1072	
12	0.1	-164.337	4.17938	17.3323	-174.163	21.0752	-3.4186	-185.955	36.0907	-27.9679	-187.286	48.1567	-47.4438	-133.153	-6.71871	-53.8224	-131.05	0.541015	-78.8627	-123.36	9.92456	-98.7142	-108.675	-13.3405	-50.9644	-95.5415	-4.38767	-77.1102	-83.852	12.2822	-98.9007	-85.2	-12.3736	-31.4094	-75.0391	-3.15442	-57.2411	-60.0834	12.7386	-73.7579	-73.0116	-5.74978	-10.1219	-59.8815	3.29732	-25.5951	-44.8017	19.2598	-44.1483	-110.134	-25.9234	10.0681	-118.289	-30.8742	41.9684	-143.851	-22.3872	16.0428	
13	0.108333	-176.961	0.0907408	20.6126	-193.515	12.1907	-4.84007	-205.393	22.5258	-29.6225	-210.298	34.1918	-49.0425	-147.539	-15.5102	-52.5534	-150.17	-12.1965	-79.3313	-147.505	-1.17551	-107.303	-123.477	-19.1722	-57.6563	-118.69	-10.8622	-84.8209	-112.794	5.21076	-109.486	-102.798	-12.0684	-43.5268	-94.4272	-5.18112	-64.2879	-86.2602	10.6465	-87.0114	-88.55	-3.66765	-26.7816	-75.0334	8.21138	-44.2288	-68.4503	21.3165	-61.6987	-117.141	-24.3667	5.12864	-120.981	-29.1606	35.1935	-151.501	-27.71	16.782	
14	0.116667	-194.525	-11.5242	20.6931	-210.923	-0.828761	0.0355866	-227.073	7.63163	-24.5963	-233.072	15.9647	-45.1054	-170.51	-32.6221	-55.4828	-174.384	-30.8412	-80.8068	-176.522	-22.4398	-107.251	-148.821	-34.6949	-56.7254	-146.659	-30.2536	-86.7168	-140.902	-13.1921	-118.849	-126.296	-25.7227	-48.2215	-119.306	-20.2742	-73.4243	-116.102	-7.30661	-95.6195	-105.972	-14.1847	-33.6801	-98.9099	-7.02978	-50.5324	-92.0387	7.6329	-75.3671	-130.227	-34.8775	5.27133	-134.925	-33.2748	31.6846	-165.041	-36.9264	14.8839	
15	0.125	-214.161	-22.6999	22.185	-231.392	-14.0433	-0.982345	-250.412	-8.48674	-26.03	-259.004	0.682093	-40.384	-199.028	-51.0905	-51.1838	-206.252	-51.3401	-78.2561	-204.712	-45.4746	-107.565	-172.006	-53.979	-54.4794	-175.593	-51.9022	-88.7227	-173.508	-40.1602	-116.655	-150.851	-44.4284	-47.6909	-148.518	-41.6277	-73.9042	-143.2	-30.553	-99.7554	-130.377	-31.3384	-36.4267	-127.04	-25.8724	-57.0174	-122.557	-15.8462	-80.8465	-154.504	-48.4508	1.57333	-154.049	-45.607	32.0188	-188.001	-51.8554	14.8356	
16	0.133333	-236.057	-32.8906	26.2176	-256.011	-25.44	-0.40956	-271.386	-19.7061	-20.7303	-283.162	-14.1304	-42.1716	-223.979	-66.4566	-45.1803	-229.893	-67.9294	-76.4611	-233.918	-64.9972	-100.526	-197.083	-69.2974	-50.6344	-199.259	-70.7053	-83.4004	-201.078	-61.1715	-113.566	-179.662	-61.4219	-48.125	-172.574	-61.1877	-74.9842	-170.258	-52.2193	-103.681	-156.745	-47.5914	-38.4477	-151.794	-43.839	-57.3388	-147.895	-35.8571	-80.0953	-177.048	-61.3292	7.45498	-176.611	-58.5843	31.915	-208.753	-62.9781	17.7382	
17	0.141667	-258.913	-37.5725	26.0712	-274.644	-27.9759	5.45046	-292.653	-22.2305	-17.4692	-304.753	-16.189	-38.7745	-252.491	-74.2502	-41.4756	-256.576	-77.3101	-73.2167	-261.501	-74.0473	-96.8064	-225.028	-80.5234	-52.9789	-229.302	-81.1244	-80.1992	-228.319	-71.8438	-115.684	-201.708	-72.2929	-47.4191	-198.585	-73.4531	-71.4759	-201.372	-65.955	-101.119	-182.936	-58.9413	-36.0956	-174.398	-55.6534	-60.1373	-171.131	-50.405	-78.8381	-202.722	-70.9003	5.59823	-196.619	-65.1951	31.8053	-230.186	-68.0072	21.1854	
18	0.15	-277.625	-30.8176	23.2746	-290.101	-19.3091	3.5801	-309.868	-10.0721	-23.3011	-313.199	-4.08514	-43.1285	-274.423	-68.5993	-42.3736	-282.774	-72.6801	-71.6698	-283.275	-69.3785	-98.5206	-251.188	-79.1981	-50.4067	-251.958	-81.03	-84.5477	-252.827	-73.7669	-111.458	-226.643	-74.2795	-46.2537	-222.17	-76.8514	-74.9442	-222.44	-70.2053	-104.633	-204.183	-63.348	-37.6138	-199.191	-62.7404	-62.248	-194.564	-59.7677	-81.0451	-226.806	-70.6552	6.05174	-218.993	-67.1075	33.7518	-251.862	-62.5919	20.4472	
19	0.158333	-281.809	-6.8055	17.5673	-294.394	10.5714	-4.44238	-303.691	21.8059	-29.6931	-307.534	31.3481	-51.491	-292.077	-48.5805	-51.4676	-299.16	-47.5986	-74.6846	-298.804	-43.7192	-103.568	-274.382	-64.2621	-57.2129	-279.243	-62.6956	-85.5898	-273.359	-57.4848	-115.996	-248.477	-67.5123	-53.0306	-248.455	-68.5989	-75.3784	-244.481	-64.2193	-106.408	-224.496	-63.6975	-38.2044	-218.742	-65.5885	-60.851	-212.157	-63.3156	-83.9097	-250.516	-64.3636	1.31289	-242.34	-55.9765	31.997	-276.751	-43.0324	17.86	
20	0.166667	-269.865	24.7956	13.0262	-271.785	45.0889	-15.5608	-273.679	59.6653	-41.3002	-270.976	69.7832	-62.0701	-297.534	-6.07587	-53.3856	-302.899	-4.90843	-85.1569	-300.792	-1.24641	-112.164	-289.378	-30.5372	-59.3065	-294.753	-26.433	-89.4666	-286.063	-24.4494	-122.816	-271.206	-43.9173	-53.6331	-271.333	-48.5949	-83.623	-266.339	-44.3865	-107.976	-250.739	-52.8024	-41.567	-246.718	-57.3312	-64.1762	-242.959	-57.1934	-87.1264	-270.405	-38.8994	-1.7803	-264.477	-36.3419	25.0947	-284.868	-12.2269	9.12749	
